<svg xmlns="http://www.w3.org/2000/svg" xmlns:xlink="http://www.w3.org/1999/xlink" width="1024" zoomAndPan="magnify" viewBox="0 0 768 767.999994" height="1024" preserveAspectRatio="xMidYMid meet" version="1.0"><defs><clipPath id="7c4d7558f2"><path d="M 7 5.292969 L 761 5.292969 L 761 758 L 7 758 Z M 7 5.292969 " clip-rule="nonzero"/></clipPath></defs><g clip-path="url(#7c4d7558f2)"><path fill="#414756" d="M 383.078125 4.4375 C 381.03125 4.46875 378.988281 4.597656 376.953125 4.828125 C 374.917969 5.058594 372.894531 5.386719 370.894531 5.816406 C 368.890625 6.246094 366.910156 6.773438 364.960938 7.394531 C 363.007812 8.019531 361.089844 8.734375 359.210938 9.546875 C 357.328125 10.359375 355.492188 11.261719 353.699219 12.25 C 351.902344 13.242188 350.164062 14.320312 348.476562 15.484375 C 346.789062 16.644531 345.164062 17.886719 343.597656 19.210938 C 342.03125 20.53125 340.535156 21.929688 339.109375 23.398438 C 337.679688 24.867188 336.328125 26.402344 335.050781 28.003906 C 333.773438 29.605469 332.578125 31.269531 331.460938 32.988281 C 330.347656 34.707031 329.320312 36.476562 328.378906 38.296875 C 327.4375 40.117188 326.589844 41.980469 325.832031 43.882812 C 325.074219 45.789062 324.410156 47.722656 323.84375 49.691406 C 323.277344 51.660156 322.808594 53.652344 322.433594 55.667969 C 322.0625 57.683594 321.789062 59.710938 321.617188 61.753906 C 321.445312 63.792969 321.371094 65.839844 321.402344 67.890625 L 321.402344 318.269531 L 71.019531 318.269531 C 69.984375 318.257812 68.953125 318.265625 67.917969 318.304688 C 66.886719 318.339844 65.855469 318.402344 64.824219 318.492188 C 63.792969 318.578125 62.765625 318.691406 61.742188 318.828125 C 60.71875 318.96875 59.699219 319.132812 58.679688 319.320312 C 57.664062 319.511719 56.652344 319.726562 55.648438 319.964844 C 54.640625 320.203125 53.644531 320.46875 52.652344 320.753906 C 51.65625 321.042969 50.671875 321.359375 49.695312 321.695312 C 48.71875 322.03125 47.75 322.394531 46.792969 322.78125 C 45.832031 323.164062 44.882812 323.574219 43.945312 324.007812 C 43.003906 324.4375 42.078125 324.894531 41.160156 325.371094 C 40.246094 325.851562 39.339844 326.351562 38.449219 326.875 C 37.558594 327.398438 36.679688 327.941406 35.816406 328.511719 C 34.949219 329.078125 34.101562 329.664062 33.265625 330.273438 C 32.429688 330.882812 31.609375 331.511719 30.804688 332.160156 C 30 332.808594 29.214844 333.480469 28.441406 334.167969 C 27.671875 334.855469 26.917969 335.5625 26.179688 336.289062 C 25.445312 337.015625 24.726562 337.757812 24.027344 338.519531 C 23.328125 339.28125 22.648438 340.058594 21.988281 340.855469 C 21.328125 341.648438 20.6875 342.460938 20.066406 343.285156 C 19.445312 344.113281 18.847656 344.953125 18.265625 345.8125 C 17.6875 346.667969 17.132812 347.539062 16.59375 348.421875 C 16.058594 349.304688 15.546875 350.203125 15.054688 351.113281 C 14.5625 352.023438 14.09375 352.945312 13.648438 353.875 C 13.203125 354.808594 12.78125 355.753906 12.382812 356.707031 C 11.984375 357.660156 11.609375 358.621094 11.257812 359.59375 C 10.90625 360.566406 10.578125 361.546875 10.277344 362.535156 C 9.972656 363.523438 9.695312 364.519531 9.441406 365.523438 C 9.1875 366.523438 8.960938 367.53125 8.757812 368.546875 C 8.554688 369.558594 8.375 370.578125 8.222656 371.597656 C 8.070312 372.621094 7.941406 373.648438 7.839844 374.675781 C 7.738281 375.703125 7.660156 376.734375 7.609375 377.765625 C 7.558594 378.800781 7.53125 379.832031 7.53125 380.867188 C 7.53125 381.898438 7.558594 382.933594 7.609375 383.964844 C 7.660156 385 7.738281 386.027344 7.839844 387.058594 C 7.941406 388.085938 8.070312 389.113281 8.222656 390.132812 C 8.375 391.15625 8.554688 392.175781 8.757812 393.1875 C 8.960938 394.203125 9.1875 395.210938 9.441406 396.210938 C 9.695312 397.214844 9.972656 398.210938 10.277344 399.199219 C 10.578125 400.1875 10.90625 401.167969 11.257812 402.140625 C 11.609375 403.109375 11.984375 404.074219 12.382812 405.027344 C 12.78125 405.980469 13.203125 406.925781 13.648438 407.855469 C 14.09375 408.789062 14.5625 409.710938 15.054688 410.621094 C 15.546875 411.53125 16.058594 412.425781 16.59375 413.3125 C 17.132812 414.195312 17.6875 415.066406 18.265625 415.921875 C 18.847656 416.777344 19.445312 417.621094 20.066406 418.445312 C 20.6875 419.273438 21.328125 420.085938 21.988281 420.878906 C 22.648438 421.675781 23.328125 422.453125 24.027344 423.214844 C 24.726562 423.976562 25.445312 424.71875 26.179688 425.445312 C 26.917969 426.171875 27.671875 426.878906 28.441406 427.566406 C 29.214844 428.253906 30 428.921875 30.804688 429.574219 C 31.609375 430.222656 32.429688 430.851562 33.265625 431.460938 C 34.101562 432.070312 34.949219 432.65625 35.816406 433.222656 C 36.679688 433.789062 37.558594 434.335938 38.449219 434.859375 C 39.339844 435.382812 40.246094 435.882812 41.160156 436.359375 C 42.078125 436.839844 43.003906 437.292969 43.945312 437.726562 C 44.882812 438.160156 45.832031 438.570312 46.792969 438.953125 C 47.75 439.339844 48.71875 439.699219 49.695312 440.039062 C 50.671875 440.375 51.65625 440.6875 52.652344 440.976562 C 53.644531 441.265625 54.640625 441.53125 55.648438 441.769531 C 56.652344 442.007812 57.664062 442.222656 58.679688 442.410156 C 59.699219 442.601562 60.71875 442.765625 61.742188 442.902344 C 62.765625 443.042969 63.792969 443.15625 64.824219 443.242188 C 65.855469 443.332031 66.886719 443.394531 67.917969 443.429688 C 68.953125 443.464844 69.984375 443.476562 71.019531 443.460938 L 321.402344 443.460938 L 321.402344 693.84375 C 321.386719 694.878906 321.398438 695.910156 321.433594 696.945312 C 321.46875 697.976562 321.53125 699.007812 321.621094 700.039062 C 321.707031 701.070312 321.820312 702.097656 321.960938 703.121094 C 322.097656 704.144531 322.261719 705.164062 322.449219 706.183594 C 322.640625 707.199219 322.855469 708.210938 323.09375 709.214844 C 323.332031 710.21875 323.597656 711.21875 323.886719 712.210938 C 324.175781 713.203125 324.488281 714.191406 324.824219 715.167969 C 325.164062 716.144531 325.523438 717.113281 325.910156 718.070312 C 326.292969 719.03125 326.703125 719.980469 327.136719 720.917969 C 327.570312 721.859375 328.023438 722.785156 328.503906 723.703125 C 328.980469 724.617188 329.480469 725.523438 330.003906 726.414062 C 330.527344 727.304688 331.074219 728.183594 331.640625 729.046875 C 332.207031 729.914062 332.792969 730.761719 333.402344 731.597656 C 334.011719 732.433594 334.640625 733.253906 335.289062 734.058594 C 335.941406 734.863281 336.609375 735.648438 337.296875 736.421875 C 337.984375 737.191406 338.691406 737.945312 339.417969 738.679688 C 340.144531 739.417969 340.886719 740.136719 341.648438 740.835938 C 342.410156 741.535156 343.1875 742.214844 343.984375 742.875 C 344.777344 743.535156 345.589844 744.175781 346.417969 744.796875 C 347.242188 745.417969 348.085938 746.015625 348.941406 746.59375 C 349.796875 747.175781 350.667969 747.730469 351.550781 748.265625 C 352.4375 748.804688 353.332031 749.316406 354.242188 749.808594 C 355.152344 750.300781 356.074219 750.769531 357.007812 751.214844 C 357.9375 751.660156 358.882812 752.082031 359.835938 752.480469 C 360.789062 752.878906 361.753906 753.253906 362.722656 753.605469 C 363.695312 753.957031 364.675781 754.285156 365.664062 754.585938 C 366.652344 754.890625 367.648438 755.167969 368.652344 755.421875 C 369.652344 755.675781 370.660156 755.902344 371.675781 756.105469 C 372.6875 756.308594 373.707031 756.488281 374.730469 756.640625 C 375.75 756.792969 376.777344 756.921875 377.804688 757.023438 C 378.832031 757.125 379.863281 757.203125 380.898438 757.253906 C 381.929688 757.304688 382.960938 757.332031 383.996094 757.332031 C 385.03125 757.332031 386.0625 757.304688 387.09375 757.253906 C 388.128906 757.203125 389.160156 757.125 390.1875 757.023438 C 391.214844 756.921875 392.242188 756.792969 393.265625 756.640625 C 394.285156 756.488281 395.304688 756.308594 396.316406 756.105469 C 397.332031 755.902344 398.339844 755.675781 399.339844 755.421875 C 400.34375 755.167969 401.339844 754.890625 402.328125 754.585938 C 403.316406 754.285156 404.296875 753.957031 405.269531 753.605469 C 406.242188 753.253906 407.203125 752.878906 408.15625 752.480469 C 409.109375 752.082031 410.054688 751.660156 410.988281 751.214844 C 411.917969 750.769531 412.839844 750.300781 413.75 749.808594 C 414.660156 749.316406 415.554688 748.804688 416.441406 748.265625 C 417.324219 747.730469 418.195312 747.175781 419.050781 746.59375 C 419.90625 746.015625 420.75 745.417969 421.578125 744.796875 C 422.402344 744.175781 423.214844 743.535156 424.007812 742.875 C 424.804688 742.214844 425.582031 741.535156 426.34375 740.835938 C 427.105469 740.136719 427.847656 739.417969 428.574219 738.679688 C 429.300781 737.945312 430.007812 737.191406 430.695312 736.421875 C 431.382812 735.648438 432.054688 734.863281 432.703125 734.058594 C 433.351562 733.253906 433.980469 732.433594 434.589844 731.597656 C 435.199219 730.761719 435.785156 729.914062 436.351562 729.046875 C 436.917969 728.183594 437.464844 727.304688 437.988281 726.414062 C 438.511719 725.523438 439.011719 724.617188 439.492188 723.703125 C 439.96875 722.785156 440.425781 721.859375 440.855469 720.917969 C 441.289062 719.980469 441.699219 719.03125 442.082031 718.070312 C 442.46875 717.113281 442.832031 716.144531 443.167969 715.167969 C 443.503906 714.191406 443.820312 713.203125 444.105469 712.210938 C 444.394531 711.21875 444.660156 710.21875 444.898438 709.214844 C 445.136719 708.210938 445.351562 707.199219 445.542969 706.183594 C 445.730469 705.164062 445.894531 704.144531 446.035156 703.121094 C 446.171875 702.097656 446.285156 701.070312 446.371094 700.039062 C 446.460938 699.007812 446.523438 697.976562 446.558594 696.945312 C 446.59375 695.910156 446.605469 694.878906 446.59375 693.84375 L 446.59375 443.460938 L 696.972656 443.460938 C 698.007812 443.476562 699.042969 443.464844 700.074219 443.429688 C 701.105469 443.394531 702.140625 443.332031 703.167969 443.242188 C 704.199219 443.15625 705.226562 443.042969 706.25 442.902344 C 707.273438 442.765625 708.296875 442.601562 709.3125 442.410156 C 710.328125 442.222656 711.339844 442.007812 712.34375 441.769531 C 713.351562 441.53125 714.347656 441.265625 715.34375 440.976562 C 716.335938 440.6875 717.320312 440.375 718.296875 440.039062 C 719.273438 439.699219 720.242188 439.339844 721.199219 438.953125 C 722.160156 438.566406 723.109375 438.160156 724.046875 437.726562 C 724.988281 437.292969 725.914062 436.839844 726.832031 436.359375 C 727.746094 435.882812 728.652344 435.382812 729.542969 434.859375 C 730.433594 434.335938 731.3125 433.789062 732.175781 433.222656 C 733.042969 432.65625 733.890625 432.070312 734.726562 431.460938 C 735.5625 430.851562 736.382812 430.222656 737.1875 429.574219 C 737.992188 428.921875 738.777344 428.253906 739.550781 427.566406 C 740.320312 426.878906 741.074219 426.171875 741.8125 425.445312 C 742.546875 424.71875 743.265625 423.976562 743.964844 423.214844 C 744.664062 422.453125 745.34375 421.675781 746.003906 420.878906 C 746.664062 420.085938 747.304688 419.273438 747.925781 418.445312 C 748.546875 417.621094 749.144531 416.777344 749.726562 415.921875 C 750.304688 415.066406 750.863281 414.195312 751.398438 413.3125 C 751.933594 412.425781 752.445312 411.53125 752.9375 410.621094 C 753.429688 409.710938 753.898438 408.789062 754.34375 407.855469 C 754.789062 406.925781 755.210938 405.980469 755.609375 405.027344 C 756.007812 404.074219 756.382812 403.109375 756.734375 402.136719 C 757.085938 401.167969 757.414062 400.1875 757.714844 399.199219 C 758.019531 398.210938 758.296875 397.214844 758.550781 396.210938 C 758.804688 395.210938 759.03125 394.203125 759.234375 393.1875 C 759.441406 392.175781 759.617188 391.15625 759.769531 390.132812 C 759.925781 389.113281 760.050781 388.085938 760.152344 387.058594 C 760.257812 386.027344 760.332031 385 760.382812 383.964844 C 760.433594 382.933594 760.460938 381.898438 760.460938 380.867188 C 760.460938 379.832031 760.433594 378.800781 760.382812 377.765625 C 760.332031 376.734375 760.257812 375.703125 760.152344 374.675781 C 760.050781 373.648438 759.925781 372.621094 759.769531 371.597656 C 759.617188 370.578125 759.441406 369.558594 759.234375 368.546875 C 759.03125 367.53125 758.804688 366.523438 758.550781 365.523438 C 758.296875 364.519531 758.019531 363.523438 757.714844 362.535156 C 757.414062 361.546875 757.085938 360.566406 756.734375 359.59375 C 756.382812 358.621094 756.007812 357.660156 755.609375 356.707031 C 755.210938 355.753906 754.789062 354.808594 754.34375 353.875 C 753.898438 352.941406 753.429688 352.023438 752.9375 351.113281 C 752.445312 350.203125 751.933594 349.304688 751.398438 348.421875 C 750.863281 347.539062 750.304688 346.667969 749.726562 345.8125 C 749.144531 344.953125 748.546875 344.113281 747.925781 343.285156 C 747.304688 342.460938 746.664062 341.648438 746.003906 340.855469 C 745.34375 340.058594 744.664062 339.28125 743.964844 338.519531 C 743.265625 337.757812 742.546875 337.015625 741.8125 336.289062 C 741.074219 335.5625 740.320312 334.855469 739.550781 334.167969 C 738.777344 333.480469 737.992188 332.808594 737.1875 332.160156 C 736.382812 331.511719 735.5625 330.882812 734.726562 330.273438 C 733.890625 329.664062 733.042969 329.078125 732.175781 328.511719 C 731.3125 327.941406 730.433594 327.398438 729.542969 326.875 C 728.652344 326.351562 727.746094 325.851562 726.832031 325.371094 C 725.914062 324.894531 724.988281 324.4375 724.046875 324.007812 C 723.109375 323.574219 722.160156 323.164062 721.199219 322.78125 C 720.242188 322.394531 719.273438 322.03125 718.296875 321.695312 C 717.320312 321.359375 716.335938 321.042969 715.34375 320.753906 C 714.347656 320.46875 713.351562 320.203125 712.34375 319.964844 C 711.339844 319.722656 710.328125 319.511719 709.3125 319.320312 C 708.296875 319.132812 707.273438 318.96875 706.25 318.828125 C 705.226562 318.691406 704.199219 318.578125 703.167969 318.492188 C 702.140625 318.402344 701.105469 318.339844 700.074219 318.304688 C 699.042969 318.265625 698.007812 318.257812 696.972656 318.269531 L 446.59375 318.269531 L 446.59375 67.890625 C 446.605469 66.847656 446.59375 65.804688 446.554688 64.761719 C 446.519531 63.71875 446.453125 62.679688 446.363281 61.640625 C 446.273438 60.601562 446.160156 59.5625 446.019531 58.53125 C 445.875 57.496094 445.707031 56.46875 445.515625 55.441406 C 445.324219 54.417969 445.105469 53.398438 444.859375 52.382812 C 444.617188 51.371094 444.347656 50.363281 444.050781 49.363281 C 443.757812 48.363281 443.4375 47.367188 443.09375 46.382812 C 442.75 45.398438 442.382812 44.425781 441.988281 43.457031 C 441.597656 42.492188 441.179688 41.535156 440.738281 40.589844 C 440.296875 39.644531 439.835938 38.710938 439.347656 37.789062 C 438.859375 36.867188 438.351562 35.957031 437.816406 35.0625 C 437.285156 34.164062 436.730469 33.28125 436.152344 32.414062 C 435.578125 31.542969 434.980469 30.6875 434.359375 29.851562 C 433.738281 29.011719 433.097656 28.1875 432.4375 27.378906 C 431.777344 26.574219 431.097656 25.785156 430.398438 25.011719 C 429.699219 24.238281 428.980469 23.480469 428.242188 22.746094 C 427.503906 22.007812 426.746094 21.289062 425.972656 20.589844 C 425.199219 19.890625 424.410156 19.210938 423.601562 18.550781 C 422.792969 17.890625 421.96875 17.253906 421.128906 16.632812 C 420.289062 16.015625 419.4375 15.417969 418.566406 14.839844 C 417.695312 14.265625 416.8125 13.710938 415.914062 13.179688 C 415.019531 12.648438 414.109375 12.140625 413.1875 11.652344 C 412.261719 11.167969 411.328125 10.703125 410.382812 10.265625 C 409.4375 9.824219 408.480469 9.410156 407.515625 9.015625 C 406.546875 8.625 405.570312 8.257812 404.585938 7.914062 C 403.601562 7.570312 402.609375 7.253906 401.609375 6.960938 C 400.609375 6.664062 399.601562 6.398438 398.585938 6.15625 C 397.570312 5.910156 396.550781 5.695312 395.527344 5.5 C 394.5 5.308594 393.472656 5.144531 392.4375 5.003906 C 391.40625 4.863281 390.367188 4.746094 389.328125 4.660156 C 388.289062 4.570312 387.25 4.507812 386.207031 4.46875 C 385.164062 4.433594 384.121094 4.421875 383.078125 4.4375 Z M 383.078125 4.4375 " fill-opacity="1" fill-rule="nonzero"/></g></svg>