<svg xmlns="http://www.w3.org/2000/svg" xmlns:xlink="http://www.w3.org/1999/xlink" width="1024" zoomAndPan="magnify" viewBox="0 0 768 767.999994" height="1024" preserveAspectRatio="xMidYMid meet" version="1.0"><defs><clipPath id="b377117842"><path d="M 6 206 L 763.777344 206 L 763.777344 562 L 6 562 Z M 6 206 " clip-rule="nonzero"/></clipPath></defs><g clip-path="url(#b377117842)"><path fill="#414756" d="M 164.546875 553.246094 L 14.4375 403.140625 C 4.027344 392.730469 4.027344 375.605469 14.4375 365.195312 L 164.546875 214.75 C 174.957031 204.339844 192.082031 204.339844 202.492188 214.75 C 212.902344 225.160156 212.902344 242.289062 202.492188 252.699219 L 98.054688 357.136719 L 737.101562 357.136719 C 751.875 357.136719 763.964844 369.222656 763.964844 384 C 763.964844 398.777344 751.875 410.863281 737.101562 410.863281 L 98.390625 410.863281 L 202.828125 515.300781 C 208.199219 520.675781 210.550781 527.390625 210.550781 534.441406 C 210.550781 541.496094 207.863281 548.210938 202.828125 553.582031 C 192.082031 563.65625 174.957031 563.65625 164.546875 553.246094 Z M 164.546875 553.246094 " fill-opacity="1" fill-rule="nonzero"/></g></svg>