<svg xmlns="http://www.w3.org/2000/svg" xmlns:xlink="http://www.w3.org/1999/xlink" width="1024" zoomAndPan="magnify" viewBox="0 0 768 767.999994" height="1024" preserveAspectRatio="xMidYMid meet" version="1.0"><defs><clipPath id="7caf856420"><path d="M 15 19 L 752 19 L 752 755.730469 L 15 755.730469 Z M 15 19 " clip-rule="nonzero"/></clipPath></defs><g clip-path="url(#7caf856420)"><path fill="#414756" d="M 487.925781 387.777344 L 730.285156 145.417969 C 759.027344 116.703125 759.027344 70.109375 730.285156 41.367188 C 701.546875 12.652344 655 12.652344 626.261719 41.367188 L 383.902344 283.726562 L 141.542969 41.390625 C 112.828125 12.652344 66.234375 12.652344 37.492188 41.390625 C 8.777344 70.109375 8.777344 116.703125 37.492188 145.441406 L 279.851562 387.777344 L 36.90625 630.722656 C 8.1875 659.4375 8.1875 706.03125 36.90625 734.75 C 51.25 749.117188 70.109375 756.304688 88.917969 756.304688 C 107.726562 756.304688 126.585938 749.117188 140.957031 734.75 L 383.878906 491.824219 L 626.210938 734.160156 C 640.582031 748.53125 659.414062 755.714844 678.222656 755.714844 C 697.03125 755.714844 715.867188 748.53125 730.238281 734.160156 C 758.976562 705.445312 758.976562 658.851562 730.238281 630.132812 Z M 487.925781 387.777344 " fill-opacity="1" fill-rule="nonzero"/></g></svg>