<svg xmlns="http://www.w3.org/2000/svg" xmlns:xlink="http://www.w3.org/1999/xlink" width="1024" zoomAndPan="magnify" viewBox="0 0 768 767.999994" height="1024" preserveAspectRatio="xMidYMid meet" version="1.0"><defs><clipPath id="1e2a0d0fcd"><path d="M 4.027344 206 L 762 206 L 762 562 L 4.027344 562 Z M 4.027344 206 " clip-rule="nonzero"/></clipPath></defs><g clip-path="url(#1e2a0d0fcd)"><path fill="#414756" d="M 603.449219 553.246094 L 753.554688 403.140625 C 763.964844 392.730469 763.964844 375.605469 753.554688 365.195312 L 603.449219 214.75 C 593.039062 204.339844 575.910156 204.339844 565.5 214.75 C 555.089844 225.160156 555.089844 242.289062 565.5 252.699219 L 669.9375 357.136719 L 30.894531 357.136719 C 16.117188 357.136719 4.027344 369.222656 4.027344 384 C 4.027344 398.777344 16.117188 410.863281 30.894531 410.863281 L 669.601562 410.863281 L 565.164062 515.300781 C 559.792969 520.675781 557.441406 527.390625 557.441406 534.441406 C 557.441406 541.496094 560.128906 548.210938 565.164062 553.582031 C 575.910156 563.65625 593.039062 563.65625 603.449219 553.246094 Z M 603.449219 553.246094 " fill-opacity="1" fill-rule="nonzero"/></g></svg>