<svg xmlns="http://www.w3.org/2000/svg" xmlns:xlink="http://www.w3.org/1999/xlink" width="1024" zoomAndPan="magnify" viewBox="0 0 768 767.999994" height="1024" preserveAspectRatio="xMidYMid meet" version="1.0"><defs><clipPath id="5cfb2ba35a"><path d="M 211 70.488281 L 588 70.488281 L 588 556 L 211 556 Z M 211 70.488281 " clip-rule="nonzero"/></clipPath><clipPath id="934c1a10e4"><path d="M 340 659 L 458 659 L 458 697.488281 L 340 697.488281 Z M 340 659 " clip-rule="nonzero"/></clipPath></defs><rect x="-76.8" width="921.6" fill="#ffffff" y="-76.799999" height="921.599993" fill-opacity="1"/><rect x="-76.8" width="921.6" fill="#ffffff" y="-76.799999" height="921.599993" fill-opacity="1"/><g clip-path="url(#5cfb2ba35a)"><path fill="#dbe1f4" d="M 405.542969 70.550781 C 403.640625 70.550781 401.730469 70.601562 399.8125 70.695312 C 397.917969 70.601562 396.023438 70.558594 394.132812 70.558594 C 330.636719 70.558594 272.914062 121.441406 270.46875 123.628906 C 221.300781 166.128906 202.4375 223.664062 215.902344 290.019531 C 225.960938 339.636719 250.171875 376.132812 251.214844 377.6875 C 251.585938 378.234375 288 432.175781 290.101562 458.78125 L 295.972656 533.449219 L 296.242188 534.1875 C 296.53125 534.964844 303.421875 553.199219 319.089844 555.292969 L 480.171875 555.339844 L 480.550781 555.292969 C 496.21875 553.199219 503.121094 534.964844 503.390625 534.1875 L 503.667969 533.449219 L 509.554688 458.78125 C 511.632812 432.175781 548.058594 378.234375 548.445312 377.660156 C 549.476562 376.132812 573.667969 339.636719 583.746094 290.019531 C 597.222656 223.664062 578.34375 166.128906 529.246094 123.699219 C 526.726562 121.449219 469.109375 70.550781 405.542969 70.550781 Z M 405.542969 85.417969 C 418.46875 85.417969 432.292969 87.84375 446.625 92.636719 C 458.460938 96.589844 470.667969 102.160156 482.886719 109.175781 C 504.402344 121.519531 518.75 134.246094 519.355469 134.777344 L 519.4375 134.867188 L 519.535156 134.949219 C 541.890625 154.273438 557.476562 177.003906 565.835938 202.519531 C 574.238281 228.152344 575.367188 256.597656 569.179688 287.058594 C 559.621094 334.132812 536.363281 369 536.128906 369.339844 L 536.109375 369.371094 L 536.097656 369.394531 C 535.0625 370.921875 525.769531 384.828125 516.398438 401.675781 C 502.867188 426.023438 495.777344 444.316406 494.738281 457.613281 L 489.027344 530.027344 C 487.640625 533.011719 483.863281 539.457031 479.074219 540.480469 L 320.378906 540.433594 C 315.695312 539.277344 311.992188 532.988281 310.605469 530.023438 L 304.914062 457.617188 C 303.863281 444.359375 296.824219 426.117188 283.351562 401.863281 C 274.207031 385.402344 265.289062 371.964844 263.589844 369.445312 L 263.570312 369.421875 L 263.582031 369.441406 L 263.554688 369.394531 L 263.53125 369.359375 C 263.296875 369.011719 240.019531 334.183594 230.464844 287.058594 C 224.285156 256.59375 225.40625 228.144531 233.816406 202.5 C 242.1875 176.992188 257.789062 154.238281 280.179688 134.878906 L 280.292969 134.785156 L 280.398438 134.695312 C 280.539062 134.566406 295.03125 121.648438 316.800781 109.164062 C 329.03125 102.15625 341.238281 96.589844 353.070312 92.636719 C 367.40625 87.847656 381.226562 85.417969 394.132812 85.417969 C 395.785156 85.417969 397.457031 85.464844 399.097656 85.535156 L 399.820312 85.574219 L 400.546875 85.535156 C 402.1875 85.457031 403.867188 85.417969 405.542969 85.417969 " fill-opacity="1" fill-rule="nonzero"/></g><g clip-path="url(#934c1a10e4)"><path fill="#dbe1f4" d="M 403.992188 697.597656 C 403.304688 697.597656 402.609375 697.585938 401.910156 697.566406 C 399.53125 697.492188 397.066406 697.269531 394.585938 696.914062 C 375.082031 694.214844 356.164062 682.308594 345.210938 665.847656 L 340.734375 659.117188 L 348.671875 660.65625 C 363.171875 663.453125 377.859375 665.101562 392.328125 665.578125 C 395.265625 665.671875 398.191406 665.726562 401.117188 665.726562 C 418.054688 665.726562 434.816406 664.105469 450.960938 660.90625 L 457.3125 659.648438 L 454.722656 665.589844 C 446.074219 685.335938 426.632812 697.597656 403.992188 697.597656 " fill-opacity="1" fill-rule="nonzero"/></g><path fill="#dbe1f4" d="M 400.007812 607.496094 C 396.730469 607.496094 393.445312 607.449219 390.148438 607.375 C 372.332031 606.914062 354.175781 605.21875 336.1875 602.320312 C 332.398438 601.722656 328.714844 600.546875 325.570312 598.917969 L 324.859375 598.550781 C 317.875 594.667969 314.4375 589.039062 315.582031 583.4375 C 316.933594 576.839844 324.089844 572.746094 334.261719 572.746094 L 335.242188 572.746094 C 337.109375 572.800781 339.058594 572.992188 341.027344 573.304688 C 358.152344 576.117188 375.390625 577.753906 392.292969 578.179688 C 395.34375 578.257812 398.398438 578.304688 401.441406 578.304688 C 421.804688 578.304688 442.0625 576.558594 461.660156 573.121094 C 463.628906 572.78125 465.578125 572.613281 467.472656 572.613281 L 468.21875 572.613281 C 471.765625 572.707031 474.992188 573.453125 477.546875 574.761719 C 481.453125 576.78125 483.886719 580.195312 484.234375 584.136719 C 484.921875 592.25 476.542969 599.914062 464.761719 601.957031 C 443.675781 605.628906 421.882812 607.496094 400.007812 607.496094 " fill-opacity="1" fill-rule="nonzero"/><path fill="#dbe1f4" d="M 399.632812 650.679688 C 396.589844 650.679688 393.546875 650.632812 390.507812 650.566406 C 373.375 650.125 355.902344 648.445312 338.566406 645.554688 C 334.871094 644.960938 331.304688 643.777344 328.273438 642.136719 L 327.609375 641.789062 C 320.878906 637.902344 317.5625 632.285156 318.667969 626.726562 C 319.976562 620.097656 326.921875 616 336.808594 616 L 337.710938 616.003906 C 339.511719 616.050781 341.40625 616.234375 343.3125 616.558594 C 359.777344 619.339844 376.347656 620.964844 392.585938 621.375 C 395.40625 621.457031 398.222656 621.492188 401.03125 621.492188 C 420.710938 621.492188 440.300781 619.722656 459.257812 616.257812 C 461.183594 615.90625 463.082031 615.726562 464.886719 615.726562 L 465.632812 615.738281 C 469.074219 615.816406 472.21875 616.582031 474.703125 617.902344 C 478.488281 619.929688 480.832031 623.34375 481.144531 627.261719 C 481.800781 635.355469 473.710938 643.011719 462.320312 645.074219 C 441.890625 648.792969 420.800781 650.679688 399.632812 650.679688 " fill-opacity="1" fill-rule="nonzero"/></svg>