<svg xmlns="http://www.w3.org/2000/svg" xmlns:xlink="http://www.w3.org/1999/xlink" width="1024" zoomAndPan="magnify" viewBox="0 0 768 767.999994" height="1024" preserveAspectRatio="xMidYMid meet" version="1.0"><defs><clipPath id="bcb71a4f49"><path d="M 91 65 L 745.03125 65 L 745.03125 762.878906 L 91 762.878906 Z M 91 65 " clip-rule="nonzero"/></clipPath><clipPath id="2243b1a0fa"><path d="M 531 590 L 745.03125 590 L 745.03125 762.878906 L 531 762.878906 Z M 531 590 " clip-rule="nonzero"/></clipPath><clipPath id="146cc36692"><path d="M 22.78125 5.378906 L 219 5.378906 L 219 198 L 22.78125 198 Z M 22.78125 5.378906 " clip-rule="nonzero"/></clipPath></defs><g clip-path="url(#bcb71a4f49)"><path fill="#dbe1f4" d="M 564.640625 762.5 L 745.214844 590.285156 L 745.214844 65.285156 L 91.472656 65.285156 L 91.472656 762.5 Z M 564.640625 762.5 " fill-opacity="1" fill-rule="evenodd"/></g><g clip-path="url(#2243b1a0fa)"><path fill="#414756" d="M 745.214844 590.285156 C 745.214844 590.285156 574.671875 635.429688 533.710938 590.285156 C 526.988281 654.082031 535.699219 712.082031 564.640625 762.5 Z M 745.214844 590.285156 " fill-opacity="1" fill-rule="evenodd"/></g><g clip-path="url(#146cc36692)"><path fill="#a5abbd" d="M 175.75 5.511719 L 218.683594 50.050781 L 65.710938 197.515625 L 22.777344 152.980469 Z M 175.75 5.511719 " fill-opacity="0.68" fill-rule="evenodd"/></g></svg>