<svg xmlns="http://www.w3.org/2000/svg" xmlns:xlink="http://www.w3.org/1999/xlink" width="1024" zoomAndPan="magnify" viewBox="0 0 768 767.999994" height="1024" preserveAspectRatio="xMidYMid meet" version="1.0"><defs><clipPath id="affd1e03d1"><path d="M 37.253906 60.226562 L 686 60.226562 L 686 707.476562 L 37.253906 707.476562 Z M 37.253906 60.226562 " clip-rule="nonzero"/></clipPath></defs><rect x="-76.8" width="921.6" fill="#ffffff" y="-76.799999" height="921.599993" fill-opacity="1"/><rect x="-76.8" width="921.6" fill="#ffffff" y="-76.799999" height="921.599993" fill-opacity="1"/><g clip-path="url(#affd1e03d1)"><path fill="#dbe1f4" d="M 645.421875 383.996094 C 645.421875 540.6875 517.949219 668.164062 361.257812 668.164062 C 204.566406 668.164062 77.089844 540.6875 77.089844 383.996094 C 77.089844 227.308594 204.566406 99.832031 361.257812 99.832031 C 434.257812 99.832031 500.902344 127.507812 551.285156 172.90625 L 579.3125 144.875 C 521.734375 92.320312 445.175781 60.226562 361.257812 60.226562 C 182.730469 60.226562 37.488281 205.46875 37.488281 383.996094 C 37.488281 562.527344 182.730469 707.769531 361.257812 707.769531 C 539.785156 707.769531 685.027344 562.527344 685.027344 383.996094 C 685.027344 352.269531 680.417969 321.605469 671.875 292.609375 L 639.285156 325.195312 C 643.296875 344.171875 645.421875 363.839844 645.421875 383.996094 " fill-opacity="1" fill-rule="nonzero"/></g><path fill="#dbe1f4" d="M 722.121094 152.804688 L 691.53125 122.214844 C 687.355469 118.042969 681.890625 115.957031 676.421875 115.957031 C 670.949219 115.957031 665.480469 118.042969 661.308594 122.214844 L 351.5 432.023438 L 244.789062 325.3125 C 240.613281 321.140625 235.148438 319.054688 229.679688 319.054688 C 224.210938 319.054688 218.738281 321.140625 214.566406 325.3125 L 183.980469 355.902344 C 175.632812 364.25 175.632812 377.78125 183.980469 386.125 L 336.386719 538.539062 C 340.5625 542.707031 346.03125 544.792969 351.5 544.792969 C 356.96875 544.792969 362.4375 542.707031 366.609375 538.539062 L 722.121094 183.027344 C 730.464844 174.679688 730.464844 161.152344 722.121094 152.804688 " fill-opacity="1" fill-rule="nonzero"/></svg>