<svg xmlns="http://www.w3.org/2000/svg" xmlns:xlink="http://www.w3.org/1999/xlink" width="1024" zoomAndPan="magnify" viewBox="0 0 768 767.999994" height="1024" preserveAspectRatio="xMidYMid meet" version="1.0"><defs><clipPath id="ff54395311"><path d="M 24.128906 100.644531 L 741.128906 100.644531 L 741.128906 669.398438 L 24.128906 669.398438 Z M 24.128906 100.644531 " clip-rule="nonzero"/></clipPath></defs><g clip-path="url(#ff54395311)"><path fill="#414756" d="M 459.109375 182.683594 C 457.390625 186.175781 457.195312 189.832031 456.933594 193.648438 C 456.730469 196.589844 456.160156 200.460938 452.757812 201.339844 C 451.535156 201.65625 451.660156 200.542969 451.449219 199.34375 C 451.175781 197.824219 451.292969 196.234375 451.660156 194.742188 C 452.480469 191.367188 454.402344 188.292969 456.550781 185.609375 C 457.359375 184.597656 458.230469 183.632812 459.109375 182.683594 Z M 240.921875 392 C 218.980469 411.566406 197.441406 431.59375 176.398438 452.136719 C 176.390625 452.140625 176.386719 452.148438 176.378906 452.160156 C 164.566406 449.765625 152.605469 448.148438 140.589844 448.792969 C 135.683594 449.050781 130.679688 449.75 125.792969 450.925781 C 152 431.121094 177.847656 410.839844 203.257812 390.023438 C 232.070312 366.417969 260.359375 342.175781 288.089844 317.308594 C 315.554688 292.6875 342.324219 267.328125 368.964844 241.808594 C 395.355469 216.527344 421.742188 191.203125 449.054688 166.90625 C 462.695312 154.777344 476.566406 142.902344 490.773438 131.4375 C 497.824219 125.742188 504.871094 119.9375 512.246094 114.675781 C 517.9375 110.609375 524.882812 106.484375 532.074219 106.300781 C 534.308594 106.242188 536.402344 106.671875 538.28125 107.644531 C 513.691406 128.503906 489.105469 149.363281 464.523438 170.21875 C 455.722656 177.691406 441.972656 189.246094 446.488281 202.519531 C 447.476562 205.429688 449.414062 207.152344 452.648438 207.003906 C 455.492188 206.875 458.058594 205.128906 459.761719 202.941406 C 464.113281 197.371094 461.195312 189.6875 464.914062 183.820312 C 466.710938 180.992188 469.316406 178.730469 471.84375 176.570312 C 474.949219 173.914062 478.09375 171.292969 481.214844 168.652344 C 487.488281 163.351562 493.765625 158.050781 500.046875 152.75 C 506.445312 147.347656 512.839844 141.941406 519.238281 136.542969 C 525.09375 131.597656 530.78125 126.210938 537.136719 121.914062 C 542.222656 118.46875 548.875 114.898438 555.160156 117.074219 C 560.363281 118.878906 562.9375 124.238281 563.167969 129.460938 C 563.78125 143.085938 550.726562 151.914062 541.1875 159.308594 C 528.101562 169.453125 515.011719 179.597656 501.925781 189.746094 C 496 194.332031 490.121094 199.882812 483.335938 203.167969 C 480.53125 204.535156 477.355469 205.328125 474.257812 204.621094 C 473.945312 204.550781 473.636719 204.464844 473.332031 204.375 C 474.613281 202.054688 475.738281 199.640625 476.667969 197.097656 C 477.0625 196.015625 476.421875 194.433594 475.378906 193.925781 C 472.683594 192.625 469.71875 192.550781 467.007812 193.921875 C 464.757812 195.0625 462.089844 197.753906 462.375 200.496094 C 462.617188 202.847656 463.851562 204.804688 465.582031 206.34375 C 461.691406 211.921875 456.773438 216.800781 451.613281 221.238281 C 442.4375 229.144531 432.476562 236.183594 422.851562 243.527344 C 402.296875 259.210938 381.851562 275.046875 361.578125 291.09375 C 360.625 291.257812 359.984375 291.859375 359.65625 292.613281 C 319.210938 324.683594 279.453125 357.636719 240.921875 392 Z M 242.476562 347.339844 C 243.484375 347.796875 244.632812 347.789062 245.503906 347.207031 C 239.363281 352.492188 233.199219 357.742188 227.003906 362.960938 C 230.617188 356.789062 233.105469 349.976562 234.335938 342.933594 C 236.949219 344.585938 239.664062 346.070312 242.476562 347.339844 Z M 229.683594 332.46875 C 229.257812 332.089844 228.820312 331.71875 228.40625 331.328125 C 225.898438 328.988281 223.539062 326.449219 221.457031 323.710938 C 220.070312 321.890625 217.035156 318.359375 218.097656 316.320312 C 218.808594 314.949219 221.023438 314.332031 222.628906 314.546875 C 225.152344 314.886719 226.851562 317.261719 227.792969 319.507812 C 229.023438 322.425781 229.394531 325.714844 229.585938 328.851562 C 229.660156 330.050781 229.683594 331.261719 229.683594 332.46875 Z M 115.152344 427.402344 C 118.738281 420.601562 122.984375 414.097656 126.914062 407.488281 C 131.128906 400.398438 135.351562 393.308594 139.566406 386.21875 C 144.246094 378.351562 148.925781 370.492188 153.605469 362.625 C 153.792969 362.523438 153.976562 362.398438 154.15625 362.238281 C 164.402344 353.269531 174.015625 343.230469 180.722656 331.285156 C 186.515625 320.964844 189.980469 309.371094 196.882812 299.671875 C 200.183594 295.039062 204.410156 291.21875 209.496094 288.640625 C 215.007812 285.847656 221.257812 284.585938 227.371094 284.007812 C 240.023438 282.816406 252.816406 283.625 265.40625 285.121094 C 279.796875 286.824219 294.070312 289.378906 308.4375 291.234375 C 305.136719 294.28125 301.828125 297.3125 298.511719 300.339844 C 281.230469 316.078125 263.699219 331.542969 245.984375 346.796875 C 246.101562 346.660156 246.214844 346.503906 246.320312 346.332031 C 247.023438 345.132812 246.695312 343.117188 245.308594 342.496094 C 241.730469 340.878906 238.320312 338.941406 235.113281 336.714844 C 235.335938 333.742188 235.367188 330.765625 235.121094 327.789062 C 234.804688 323.804688 234.179688 319.804688 232.414062 316.175781 C 230.859375 312.976562 228.042969 310.007812 224.46875 309.207031 C 221.207031 308.476562 217.660156 309.171875 215.066406 311.320312 C 207.90625 317.25 216.242188 326.578125 220.566406 331.367188 C 223.207031 334.292969 226.132812 336.964844 229.257812 339.375 C 229.25 339.457031 229.246094 339.542969 229.234375 339.621094 C 228.152344 347.722656 225.234375 355.484375 220.820312 362.347656 C 219.5625 364.300781 221.097656 366.144531 222.878906 366.4375 C 219.527344 369.253906 216.191406 372.089844 212.820312 374.886719 C 183.644531 399.128906 153.921875 422.707031 123.667969 445.585938 C 120.425781 448.046875 117.167969 450.492188 113.90625 452.929688 C 106.484375 447.210938 111.59375 434.136719 115.152344 427.402344 Z M 468.226562 200.457031 C 468.191406 200.421875 468.15625 200.3125 468.125 200.210938 C 468.164062 200.113281 468.210938 200.015625 468.261719 199.976562 C 468.734375 199.597656 469.027344 199.1875 469.585938 198.90625 C 469.699219 198.851562 469.820312 198.816406 469.941406 198.769531 C 469.578125 199.558594 469.203125 200.339844 468.796875 201.101562 C 468.621094 200.882812 468.4375 200.667969 468.226562 200.457031 Z M 335.320312 360.453125 C 336.414062 358.625 337.578125 356.839844 338.828125 355.113281 C 339.777344 353.804688 340.527344 352.839844 341.839844 351.390625 C 342.816406 350.308594 343.855469 349.316406 344.964844 348.371094 C 345 348.34375 345.011719 348.332031 345.015625 348.328125 C 345.054688 348.296875 345.101562 348.269531 345.164062 348.222656 C 345.371094 348.085938 345.570312 347.945312 345.777344 347.820312 C 345.964844 347.699219 346.160156 347.597656 346.351562 347.476562 C 346.410156 347.449219 346.46875 347.417969 346.523438 347.390625 C 346.632812 347.367188 346.734375 347.332031 346.839844 347.292969 C 346.820312 347.28125 346.804688 347.277344 346.792969 347.269531 C 346.804688 347.269531 346.808594 347.265625 346.828125 347.265625 C 346.839844 347.269531 346.855469 347.269531 346.878906 347.28125 C 346.882812 347.277344 346.890625 347.269531 346.902344 347.269531 C 346.925781 347.269531 346.957031 347.269531 346.964844 347.277344 C 346.980469 347.292969 346.988281 347.304688 346.988281 347.316406 C 347 347.316406 347 347.316406 347.011719 347.320312 C 347.457031 347.46875 347.839844 347.539062 348.050781 347.972656 C 348.46875 348.847656 347.660156 350.933594 347.386719 351.777344 C 346.992188 352.976562 346.425781 354.089844 345.746094 355.148438 C 342.949219 359.511719 338.074219 362.3125 333.300781 364.042969 C 333.949219 362.832031 334.621094 361.632812 335.320312 360.453125 Z M 346.742188 347.277344 C 346.742188 347.277344 346.753906 347.269531 346.757812 347.269531 C 346.746094 347.277344 346.734375 347.28125 346.730469 347.28125 C 346.730469 347.28125 346.734375 347.277344 346.742188 347.277344 Z M 346.796875 347.257812 C 346.792969 347.257812 346.792969 347.257812 346.792969 347.265625 C 346.792969 347.257812 346.792969 347.257812 346.796875 347.257812 Z M 253.265625 408.828125 C 253.582031 408.789062 254.1875 408.875 254.425781 408.984375 C 254.484375 409.011719 254.671875 409.234375 254.625 409.136719 C 254.644531 409.179688 254.757812 409.726562 254.726562 410.027344 C 254.609375 411.195312 253.867188 412.347656 253.339844 413.355469 C 252.757812 414.460938 252.152344 415.554688 251.511719 416.628906 C 251.277344 417.027344 251.015625 417.410156 250.769531 417.804688 C 250.089844 414.558594 249.300781 409.34375 253.265625 408.828125 Z M 98.363281 486.132812 C 106.59375 480.054688 117.980469 482.378906 127.121094 484.785156 C 132.289062 486.144531 137.75 487.492188 142.453125 490.089844 C 146.058594 492.085938 150.496094 495.992188 149.445312 500.648438 C 148.914062 502.992188 146.769531 504.566406 145.023438 506.023438 C 143.296875 507.453125 141.5625 508.929688 140.328125 510.804688 C 134.449219 509.589844 128.449219 508.953125 122.53125 507.984375 C 110.195312 505.957031 93.203125 501.140625 94.648438 485.296875 C 95.433594 486.390625 97.199219 486.988281 98.363281 486.132812 Z M 179.980469 535.15625 C 181.070312 540.785156 179.394531 546.34375 176.003906 550.980469 C 173.742188 554.078125 170.707031 556.78125 167.515625 558.882812 C 165.320312 560.328125 162.902344 560.910156 160.289062 560.894531 C 154.648438 560.863281 148.851562 558.335938 144.640625 554.644531 C 144.125 554.191406 143.625 553.707031 143.136719 553.203125 C 141.839844 549.417969 141.480469 545.699219 142.277344 541.738281 C 143.011719 538.070312 143.972656 534.511719 143.796875 530.730469 C 143.5625 525.800781 142.34375 520.449219 139.480469 516.445312 C 141.988281 516.953125 144.464844 517.550781 146.890625 518.335938 C 158.738281 522.15625 169.433594 528.570312 179.980469 535.15625 Z M 201.222656 547.890625 C 201.648438 552.011719 201.742188 556.15625 202.105469 560.269531 C 200.554688 558.164062 199.109375 555.980469 197.746094 553.78125 C 195.324219 549.875 193.066406 545.863281 190.78125 541.875 C 191.277344 542.171875 191.769531 542.476562 192.265625 542.773438 C 195.214844 544.550781 198.195312 546.261719 201.222656 547.890625 Z M 215.027344 554.386719 C 223.699219 557.804688 232.753906 559.609375 242.046875 560.117188 C 243.617188 560.203125 245.1875 560.246094 246.765625 560.277344 C 246.828125 560.476562 246.914062 560.675781 247.027344 560.875 C 249.609375 565.457031 247.78125 572.265625 245.109375 576.414062 C 243.496094 578.917969 240.367188 579.578125 237.566406 579.980469 C 234.511719 580.417969 231.351562 580.21875 228.347656 579.546875 C 221.863281 578.09375 216.332031 574.890625 211.542969 570.71875 C 210.605469 569.765625 209.929688 568.816406 209.214844 567.441406 C 208.746094 566.539062 208.066406 563.628906 207.941406 562.550781 C 207.492188 558.675781 207.375 554.78125 207.097656 550.890625 C 209.695312 552.148438 212.335938 553.324219 215.027344 554.386719 Z M 130.5 516.304688 C 130.574219 516.335938 130.640625 516.375 130.71875 516.402344 C 137.019531 518.488281 138.511719 527.394531 138.183594 533.117188 C 138.054688 535.449219 137.417969 537.742188 136.929688 540.042969 C 136.601562 538.871094 136.28125 537.707031 135.96875 536.550781 C 134.136719 529.789062 132.710938 522.957031 130.5 516.304688 Z M 105.53125 519.6875 C 105.878906 519.996094 106.898438 520.714844 106.984375 521.230469 C 107.148438 522.277344 104.902344 523.960938 104.207031 524.636719 C 102.722656 526.074219 101.128906 527.378906 99.414062 528.539062 C 92.667969 533.078125 85.179688 534.90625 77.128906 535.03125 C 72.78125 535.101562 68.273438 535.136719 64.191406 536.792969 C 60.109375 538.449219 57.070312 541.492188 54.210938 544.742188 C 47.0625 552.851562 39.957031 560.992188 32.832031 569.121094 C 31.992188 568.53125 30.898438 568.382812 29.9375 569.0625 C 29.851562 568.988281 29.707031 569.011719 29.714844 569.046875 C 29.417969 567.839844 32.039062 566.070312 32.726562 565.507812 C 35.300781 563.40625 37.761719 561.191406 40.082031 558.800781 C 44.839844 553.894531 49.027344 548.453125 52.941406 542.863281 C 60.734375 531.738281 67.378906 519.78125 75.878906 509.15625 C 79.75 504.316406 84.023438 499.738281 88.84375 495.828125 C 91.175781 502.449219 94.769531 508.582031 99.4375 513.851562 C 100.664062 515.234375 101.960938 516.550781 103.332031 517.792969 C 104.050781 518.441406 104.804688 519.042969 105.53125 519.6875 Z M 392.144531 583.453125 C 394.300781 583.824219 395.699219 586.25 393.238281 587.457031 C 389.632812 589.214844 384.335938 589.148438 380.429688 589.046875 C 377.316406 588.964844 374.238281 588.566406 371.191406 587.964844 C 373.84375 586.25 376.789062 584.996094 379.835938 584.199219 C 383.765625 583.167969 388.117188 582.765625 392.144531 583.453125 Z M 738.691406 512.554688 C 707.035156 509.460938 675.304688 506.730469 644.003906 500.894531 C 611.542969 494.832031 579.503906 485.402344 550.339844 469.664062 C 523.855469 455.371094 499.667969 436.101562 481.210938 412.238281 C 463.820312 389.761719 447.84375 366.179688 431.546875 342.910156 C 427.605469 337.285156 423.65625 331.65625 419.679688 326.054688 C 415.933594 320.757812 412.328125 315.214844 408.082031 310.308594 C 398.347656 299.078125 384.804688 292.867188 370.167969 291.417969 C 387.238281 277.953125 404.417969 264.632812 421.683594 251.429688 C 432.609375 243.078125 443.890625 235.082031 454.40625 226.214844 C 460.394531 221.167969 465.96875 215.601562 470.351562 209.214844 C 472.171875 209.933594 474.070312 210.355469 475.765625 210.46875 C 482.957031 210.957031 489.34375 206.503906 494.761719 202.335938 C 501.667969 197.023438 508.535156 191.664062 515.421875 186.328125 C 522.410156 180.90625 529.402344 175.492188 536.390625 170.078125 C 542.679688 165.199219 549.195312 160.507812 555.179688 155.253906 C 564.753906 146.835938 572.503906 134.316406 567.003906 121.382812 C 564.59375 115.726562 559.605469 111.757812 553.464844 110.972656 C 548.578125 110.351562 543.777344 111.789062 539.410156 114.019531 C 541.214844 112.492188 543.015625 110.960938 544.820312 109.4375 C 545.941406 108.484375 545.867188 106.425781 544.820312 105.464844 C 532.691406 94.308594 515.679688 104.964844 505.160156 113.023438 C 490.476562 124.273438 476.15625 135.988281 462.125 148.035156 C 433.9375 172.242188 406.90625 197.75 380.058594 223.414062 C 357.636719 244.855469 335.28125 266.355469 312.527344 287.441406 C 312.078125 286.511719 311.09375 285.96875 309.992188 285.824219 C 283.730469 282.523438 257.5625 276.558594 230.945312 278.125 C 218.082031 278.882812 205.113281 282.054688 196.058594 291.835938 C 187.804688 300.757812 183.835938 312.46875 178.601562 323.207031 C 172.054688 336.640625 162.230469 347.589844 151.136719 357.425781 C 150.878906 357.496094 150.621094 357.597656 150.363281 357.769531 C 134.175781 368.527344 117.699219 379.484375 104.515625 393.941406 C 91.964844 407.699219 82.972656 424.726562 81.429688 443.5 C 80.699219 452.441406 81.980469 461.386719 85.339844 469.652344 C 76.761719 472.78125 71.101562 482.863281 74.65625 491.828125 C 75.976562 495.148438 81.402344 493.703125 80.070312 490.335938 C 77.472656 483.785156 81.882812 475.105469 89.234375 474.363281 C 91.417969 474.148438 92.644531 472.171875 91.660156 470.144531 C 84.144531 454.695312 86.101562 436.339844 92.992188 421.039062 C 100.449219 404.492188 113.523438 391.445312 127.691406 380.472656 C 132.660156 376.617188 137.800781 373 143 369.457031 C 135.859375 381.472656 128.714844 393.480469 121.574219 405.488281 C 117.441406 412.421875 112.792969 419.253906 109.3125 426.539062 C 106.765625 431.867188 104.777344 437.695312 104.617188 443.648438 C 104.476562 448.800781 106.148438 453.71875 109.941406 456.957031 C 103.859375 460.328125 98.476562 464.847656 94.425781 470.765625 C 90.851562 475.988281 88.59375 482.355469 89.039062 488.679688 C 88.992188 488.707031 88.941406 488.71875 88.902344 488.75 C 63.738281 506.871094 54.644531 538.597656 31.875 558.90625 C 28.78125 561.660156 24.0625 564.367188 24.128906 569.085938 C 24.183594 573.03125 28.914062 576.328125 32.3125 574.339844 C 33.308594 575.191406 34.769531 575.402344 35.890625 574.125 C 42.664062 566.402344 49.441406 558.675781 56.214844 550.953125 C 59.027344 547.75 61.84375 543.902344 65.863281 542.140625 C 69.875 540.378906 74.496094 540.726562 78.769531 540.621094 C 87.292969 540.402344 95.605469 537.980469 102.652344 533.105469 C 105.910156 530.851562 109.828125 527.914062 111.789062 524.382812 C 114.335938 519.796875 110.371094 516.597656 107.304688 513.820312 C 105.144531 511.867188 103.195312 509.707031 101.4375 507.410156 C 101.871094 507.664062 102.308594 507.902344 102.761719 508.132812 C 109.570312 511.570312 116.996094 512.964844 124.519531 514.074219 C 124.28125 514.632812 124.207031 515.25 124.417969 515.839844 C 126.953125 522.882812 128.449219 530.171875 130.382812 537.390625 C 132.402344 544.972656 134.359375 552.90625 140.382812 558.355469 C 145.625 563.085938 152.632812 566.273438 159.738281 566.496094 C 167.726562 566.75 174.402344 561.773438 179.300781 555.828125 C 182.269531 552.214844 184.390625 548.082031 185.335938 543.703125 C 191.808594 555.039062 197.984375 566.828125 208.074219 575.230469 C 208.277344 575.402344 208.496094 575.5625 208.707031 575.734375 C 208.800781 575.816406 208.878906 575.90625 208.976562 575.980469 C 209.125 576.105469 209.277344 576.21875 209.445312 576.316406 C 214.945312 580.621094 221.339844 584 228.246094 585.242188 C 235.195312 586.484375 245.027344 586.199219 249.523438 579.882812 C 253.238281 574.660156 255.09375 566.578125 252.871094 560.28125 C 270.007812 560.007812 287.347656 557.859375 303.941406 563.046875 C 322.515625 568.855469 337.714844 581.820312 355.625 589.113281 C 357.914062 590.046875 360.261719 590.886719 362.652344 591.621094 C 363.257812 593.078125 364.394531 594.421875 365.3125 595.527344 C 367.214844 597.820312 369.402344 599.898438 371.746094 601.726562 C 376.207031 605.199219 382.492188 606.085938 387.871094 607.382812 C 401.492188 610.671875 415.355469 612.871094 429.226562 614.796875 C 461.558594 619.289062 494.09375 622.292969 526.277344 627.828125 C 559.570312 633.550781 592.972656 641.734375 623.386719 656.796875 C 630.738281 660.4375 637.875 664.484375 644.757812 668.941406 C 647.800781 670.90625 650.617188 666.046875 647.589844 664.09375 C 620.683594 646.675781 590.042969 635.945312 558.976562 628.679688 C 528.046875 621.441406 496.476562 617.523438 464.976562 613.707031 C 437.765625 610.410156 410.132812 607.652344 383.605469 600.5 C 381.257812 599.863281 378.242188 599.3125 376.480469 598.25 C 374.527344 597.058594 372.796875 595.375 371.214844 593.695312 C 375.332031 594.433594 379.507812 594.804688 383.671875 594.636719 C 389.945312 594.390625 400.984375 593.5 400.082031 584.742188 C 399.207031 576.324219 388.140625 577.113281 382.074219 578.027344 C 377.800781 578.664062 373.625 580.09375 369.859375 582.21875 C 368.296875 583.105469 365.757812 584.457031 364.039062 586.15625 C 347.160156 580.910156 332.992188 569.65625 317.082031 562.234375 C 308.636719 558.300781 299.921875 555.683594 290.648438 554.660156 C 280.910156 553.585938 271.082031 554.089844 261.316406 554.445312 C 251.488281 554.796875 241.507812 555.105469 231.78125 553.371094 C 223.753906 551.941406 216.078125 549.109375 208.78125 545.507812 C 207.695312 544.964844 206.632812 544.394531 205.558594 543.828125 C 205.25 543.554688 204.878906 543.34375 204.433594 543.246094 C 191.410156 536.273438 179.367188 527.582031 166.304688 520.671875 C 159.933594 517.300781 153.277344 514.335938 146.347656 512.300781 C 147.320312 511.320312 148.441406 510.460938 149.496094 509.570312 C 151.691406 507.730469 153.625 505.703125 154.613281 502.957031 C 156.609375 497.390625 153.339844 491.210938 149.023438 487.761719 C 143.945312 483.710938 137.558594 481.886719 131.40625 480.132812 C 125.675781 478.507812 119.800781 477.148438 113.839844 476.796875 C 107.480469 476.421875 100.761719 477.421875 95.527344 481.28125 C 95.484375 481.316406 95.445312 481.355469 95.402344 481.390625 C 97.175781 475.3125 101.5625 469.964844 106.324219 466.019531 C 112.988281 460.5 121.625 457.386719 130.015625 455.707031 C 148.140625 452.078125 166.972656 455.695312 184.707031 459.730469 C 220.128906 467.796875 256.625 477.632812 293.167969 471.375 C 302.421875 469.789062 311.453125 467.148438 320.195312 463.726562 C 326.703125 461.179688 333.449219 459.648438 340.382812 458.820312 C 355.761719 456.980469 371.378906 457.484375 386.796875 458.359375 C 392.910156 458.699219 399.011719 459.144531 405.113281 459.535156 C 408.722656 459.761719 408.707031 454.148438 405.113281 453.917969 C 390.25 452.980469 375.394531 451.851562 360.492188 452.023438 C 352.25 452.113281 344 452.582031 335.847656 453.816406 C 327.941406 455.015625 320.925781 457.644531 313.429688 460.273438 C 295.375 466.617188 276.554688 468.652344 257.515625 467.34375 C 243.304688 466.371094 229.265625 464 215.355469 461.042969 C 215.527344 460.792969 215.660156 460.511719 215.707031 460.195312 C 216.351562 455.519531 219.820312 452.457031 223.554688 449.949219 C 227.90625 447.03125 232.539062 444.609375 236.714844 441.417969 C 241.222656 437.988281 245.359375 434.074219 249.023438 429.753906 C 252.199219 434.640625 257.511719 436.148438 263.207031 435.992188 C 270.84375 435.789062 278.492188 435.1875 286.125 434.777344 C 293.90625 434.351562 301.691406 433.929688 309.472656 433.507812 C 313.066406 433.3125 313.09375 427.699219 309.472656 427.890625 C 297.183594 428.5625 284.898438 429.222656 272.601562 429.890625 C 269.644531 430.050781 266.679688 430.25 263.714844 430.359375 C 261.429688 430.445312 258.921875 430.515625 256.800781 429.519531 C 254.84375 428.605469 253.601562 426.898438 252.75 424.945312 C 254.898438 421.953125 256.855469 418.816406 258.527344 415.523438 C 259.9375 412.757812 261.15625 409.582031 259.625 406.589844 C 258.515625 404.429688 256.21875 403.328125 253.867188 403.21875 C 248.199219 402.960938 244.761719 407.890625 244.613281 413.109375 C 244.53125 415.976562 245.222656 418.882812 245.886719 421.652344 C 246.066406 422.417969 246.28125 423.183594 246.503906 423.945312 C 242.285156 429.382812 237.289062 434.238281 231.671875 438.199219 C 223.960938 443.648438 211.765625 447.996094 210.296875 458.707031 C 210.234375 459.128906 210.246094 459.546875 210.320312 459.953125 C 206.269531 459.050781 202.230469 458.117188 198.203125 457.148438 C 193.167969 455.941406 188.097656 454.714844 182.996094 453.570312 C 214.550781 422.886719 247.214844 393.367188 280.65625 364.761719 C 280.246094 366.128906 280.726562 367.773438 282.496094 368.277344 C 291.425781 370.777344 300.667969 372.230469 309.941406 372.546875 C 314.4375 372.695312 318.96875 372.621094 323.433594 372.082031 C 322.039062 375.691406 320.839844 379.375 319.847656 383.070312 C 315.378906 399.699219 315.089844 417.25 319.011719 434.015625 C 319.835938 437.535156 325.25 436.042969 324.429688 432.523438 C 319.65625 412.144531 321.613281 390.121094 329.992188 370.898438 C 330.71875 370.714844 331.441406 370.539062 332.164062 370.320312 C 338.183594 368.550781 344.300781 365.597656 348.476562 360.78125 C 352.207031 356.484375 357.257812 346.207031 350.191406 342.550781 C 343.386719 339.027344 337.171875 347.839844 333.820312 352.503906 C 330.804688 356.707031 328.226562 361.253906 326.027344 365.984375 C 321.332031 366.847656 316.539062 367.070312 311.707031 366.980469 C 302.320312 366.800781 293.027344 365.390625 283.988281 362.859375 C 283.628906 362.757812 283.296875 362.738281 282.984375 362.761719 C 287.976562 358.5 292.992188 354.257812 298.019531 350.035156 C 319.589844 331.921875 341.453125 314.171875 363.519531 296.679688 C 375.894531 296.90625 388.15625 300.03125 397.851562 308.117188 C 403.355469 312.714844 407.410156 318.457031 411.535156 324.242188 C 415.328125 329.554688 419.085938 334.898438 422.832031 340.238281 C 439.496094 363.984375 455.859375 387.988281 473.355469 411.132812 C 480.515625 420.609375 487.996094 429.441406 496.625 437.648438 C 509.492188 449.902344 523.78125 460.6875 539.074219 469.742188 C 567.632812 486.652344 599.398438 497.335938 631.761719 504.167969 C 663.265625 510.824219 695.355469 513.992188 727.363281 517.070312 C 731.136719 517.4375 734.914062 517.796875 738.691406 518.167969 C 742.285156 518.515625 742.261719 512.90625 738.691406 512.554688 " fill-opacity="1" fill-rule="nonzero"/></g><path fill="#414756" d="M 346.988281 347.316406 C 346.941406 347.296875 346.90625 347.289062 346.878906 347.28125 C 346.867188 347.28125 346.851562 347.289062 346.839844 347.292969 C 346.902344 347.320312 346.992188 347.34375 346.988281 347.316406 " fill-opacity="1" fill-rule="nonzero"/></svg>